<svg width="123" height="123" viewBox="0 0 123 123" fill="none" xmlns="http://www.w3.org/2000/svg">
<g id="Emaar-01 1" clip-path="url(#clip0_135_960)">
<g id="XMLID_1_">
<path id="XMLID_2_" d="M123 0H0V123H123V0Z" fill="white"/>
<path id="XMLID_3_" d="M44.5154 73.5645L0 23.1177V64.4308H1.48225C16.2422 66.1845 30.2623 68.6445 44.5154 73.5645Z" fill="#313131"/>
<path id="XMLID_4_" d="M61.2644 0H28.0376L58.0621 65.4422L61.2644 0Z" fill="#313131"/>
<path id="XMLID_5_" d="M97.1867 0L73.2954 68.6446L123 21.6355V0H97.1867Z" fill="#313131"/>
<path id="XMLID_6_" d="M95.9402 0H62.9824L65.9157 65.4422L95.9402 0Z" fill="#313131"/>
<path id="XMLID_7_" d="M79.6978 73.5645C93.2109 69.3844 108.711 65.6776 123 64.229V24.3645L79.6978 73.5645Z" fill="#313131"/>
<path id="XMLID_8_" d="M0 0V22.3754L49.9423 69.1154L26.0822 0H0Z" fill="#313131"/>
<path id="XMLID_9_" d="M121.518 68.6445C103.793 72.0823 71.5754 83.64 71.8133 83.64C76.7333 86.3354 81.8887 88.7954 87.3156 92.7377C87.0802 92.9731 87.0802 92.9731 86.8111 93.2422C86.8111 93.2422 86.8111 93.2422 86.5757 93.2422C60.2532 83.1691 31.4755 77.0023 1.95551 75.0468C1.72008 75.0468 0.237832 75.0468 0 75.0468V123H123V68.3755C122.496 68.3755 122.022 68.6445 121.518 68.6445ZM26.3177 115.115L26.0822 117.071H11.5577C12.0622 115.589 12.0622 114.846 12.0622 113.869V100.086C12.0622 99.1087 12.0622 98.3688 11.5577 96.8841H15.7354H25.3399V98.8396C25.1045 98.8396 24.8354 98.6042 24.5976 98.6042C24.0931 98.3688 23.3508 98.0997 22.6421 98.0997H15.5023V105.984H24.6L24.0955 107.466H15.5023V115.351H23.6246C24.8354 115.62 26.3177 114.878 26.3177 115.115ZM47.7178 117.102C47.9532 116.124 47.9532 114.642 47.7178 113.664L46.5046 104.06L39.5954 117.102H38.3486L31.204 103.589L29.7218 113.934C29.4864 115.147 29.4864 116.629 29.7218 117.371H27.2618C27.7663 116.394 27.7663 115.889 28.0041 114.169L30.2287 97.1844H31.4419L39.7996 112.922L47.922 97.1844H48.8997L51.1243 114.169C51.3597 115.887 51.6288 116.394 52.102 117.371L47.7178 117.102ZM68.6446 117.102L65.4422 109.722H58.8046L55.6022 117.102H55.3668H53.1422C53.8846 116.124 54.12 115.62 54.8599 114.407L62.4753 96.9514H63.4531L71.0685 113.936C71.8109 115.654 72.2817 116.161 73.5285 117.138H68.6422V117.102H68.6446ZM89.5378 117.102L86.3354 109.722H79.6978L76.4954 117.102H76.26H74.0354C74.7778 116.124 75.0132 115.62 75.7531 114.407L83.3685 96.9514H84.3463L91.9617 113.936C92.704 115.654 93.1749 116.161 94.4217 117.138H89.5354V117.102H89.5378ZM108.475 117.102C106.52 115.385 103.791 112.925 100.591 108.98C99.6132 108.002 99.1087 107.767 98.6354 107.767V113.9C98.6354 114.878 98.6354 115.618 99.1399 117.102H94.7244C95.2289 115.62 95.2289 114.878 95.2289 113.9V100.118C95.2289 99.1399 95.2289 98.4 94.7244 96.9153H98.9021C101.867 96.9153 108.742 96.6799 108.742 102.578C108.742 105.542 106.282 107.262 103.587 107.733H102.844C102.844 107.733 111.942 116.831 112.449 117.069H108.473V117.102H108.475Z" fill="#313131"/>
<path id="XMLID_16_" d="M103.32 106.522C105.275 105.78 105.78 104.062 105.78 102.58C105.78 101.098 105.038 97.8956 98.9045 98.1646V106.758C98.6354 106.758 102.107 106.993 103.32 106.522Z" fill="#313131"/>
<path id="XMLID_17_" d="M80.2021 108.24H85.5954L82.8976 102.342L80.2021 108.24Z" fill="#313131"/>
<path id="XMLID_18_" d="M59.5444 108.24H64.7023L62.0044 102.342L59.5444 108.24Z" fill="#313131"/>
</g>
</g>
<defs>
<clipPath id="clip0_135_960">
<rect width="123" height="123" fill="white"/>
</clipPath>
</defs>
</svg>
