<svg width="121" height="121" viewBox="0 0 121 121" fill="none" xmlns="http://www.w3.org/2000/svg">
<g id="Aldar-01 1" clip-path="url(#clip0_135_1040)">
<g id="XMLID_1_">
<path id="XMLID_2_" d="M115.316 0.0117188H93.1108V40.7098H115.316V0.0117188Z" fill="black"/>
<path id="XMLID_3_" d="M35.6761 46.9062H28.65V55.3904C28.65 74.7788 17.9444 76.4685 11.7479 76.4024H5.98145V93.2053H34.5512C44.8574 85.9146 50.0614 72.5904 50.0614 58.1082C45.453 56.4515 39.852 52.8735 35.6761 46.9062Z" fill="black"/>
<path id="XMLID_4_" d="M86.5833 21.9193V0.0117188H68.8516V27.3856C68.8516 28.2813 69.0832 35.8036 60.8307 35.8036C52.545 35.8036 51.0538 26.523 58.1791 17.5756L43.1982 9.25688C43.1982 9.25688 35.709 17.5095 35.709 29.1415C35.709 40.7736 41.9386 46.3415 41.9386 46.3415C41.9386 46.3415 46.0153 50.2858 50.5551 52.2402C50.5551 52.2402 54.4994 53.8307 57.3826 54.0954C72.5951 55.3881 79.2572 46.3746 79.2572 46.3746C86.7488 38.2567 86.5833 31.4623 86.5833 21.9193Z" fill="black"/>
<path id="XMLID_5_" d="M57.1533 59.765V93.2055H79.0279V53.4692C76.1754 55.7238 68.3884 60.793 57.1533 59.765Z" fill="black"/>
<path id="XMLID_6_" d="M101.033 43.7915L88.0747 56.5839C88.0747 56.5839 101.198 63.3122 101.198 71.9618C101.198 75.5091 98.1494 75.4736 96.0934 75.4736H85.9194V93.2054H115.118V58.8054C115.085 58.8054 111.008 50.4867 101.033 43.7915Z" fill="black"/>
<path id="XMLID_7_" d="M30.8384 99.7351H37.4012V115.014H46.9441V120.912H30.8384V99.7351Z" fill="black"/>
<path id="XMLID_8_" d="M49.3643 99.7351H59.075C60.9963 99.7351 62.5537 99.9998 63.7472 100.532C64.9406 101.061 65.9025 101.791 66.6966 102.786C67.4599 103.748 68.3532 104.908 68.7172 106.199C69.048 107.491 69.2465 108.85 69.2465 110.308C69.2465 112.596 68.9819 114.352 68.4832 115.579C67.9538 116.838 66.8265 118.131 65.8978 118.958C64.969 119.821 64.0757 120.118 63.0146 120.416C61.5895 120.813 60.2637 121.012 59.1033 121.012H49.3926L49.3643 99.7351ZM55.9271 105.502V115.08H57.5507C58.9096 115.08 59.9045 114.914 60.467 114.617C61.0625 114.319 61.495 113.787 61.8258 113.026C62.1567 112.263 62.3221 112.031 62.3221 110.342C62.3221 108.087 61.9582 107.558 61.2279 106.695C60.4977 105.865 59.2735 105.435 57.5814 105.435L55.9271 105.502Z" fill="black"/>
<path id="XMLID_11_" d="M84.3948 118.095H76.9717L75.9437 120.945H69.2485L77.2033 99.7681H84.3617L92.3165 120.945H85.4559L84.3948 118.095ZM83.0359 113.189L80.6821 105.568L78.3613 113.189H83.0359Z" fill="black"/>
<path id="XMLID_14_" d="M94.5029 120.945V99.7681H105.407C107.428 99.7681 113.296 100.631 113.362 106.926C113.395 108.12 113.263 112.891 109.385 113.754C110.181 114.019 115.052 120.912 115.052 120.912H107.262C107.262 120.912 103.384 114.782 103.02 114.782H101.033V120.945H94.5029ZM101.099 109.644H103.552C103.85 109.644 104.448 109.545 105.308 109.346C105.738 109.247 106.104 109.049 106.369 108.685C106.634 108.321 106.766 107.921 106.766 107.458C106.766 106.763 106.534 106.232 106.104 105.868C105.674 105.504 104.845 105.305 103.651 105.305H101.099V109.644Z" fill="black"/>
<path id="XMLID_17_" d="M20.8629 118.095H13.4399L12.4119 120.945H5.68359L13.6384 99.7681H20.7637L28.7185 120.945H21.891L20.8629 118.095ZM19.471 113.189L17.1171 105.568L14.7964 113.189H19.471Z" fill="black"/>
</g>
</g>
<defs>
<clipPath id="clip0_135_1040">
<rect width="121" height="121" fill="white"/>
</clipPath>
</defs>
</svg>
