<svg width="243" height="36" viewBox="0 0 243 36" fill="none" xmlns="http://www.w3.org/2000/svg">
<g id="Group">
<path id="Vector" d="M55.2864 17.7047C55.1248 19.8866 58.1956 18.9977 59.0038 18.4724C59.9735 17.8663 60.4988 17.5027 61.1453 16.4521C62.1554 14.7551 61.1049 13.7045 60.2564 13.6237C59.7715 13.5833 58.7209 13.7449 57.9936 15.1187C57.63 15.8056 57.5087 16.6946 57.5896 17.4219C56.337 18.1492 56.337 16.8158 56.337 16.3309C56.337 16.0481 56.3774 15.6036 56.4178 15.2804C56.539 14.3106 56.2562 14.553 55.6097 15.1187C55.2056 15.4824 52.458 17.7855 47.9729 20.0887C43.4879 22.3918 37.1037 24.7354 27.1234 27.0385C15.1229 29.8265 3.40512 29.2608 1.58685 26.19C-0.231417 23.1191 9.10237 17.7451 9.70846 17.3815C10.355 17.0178 9.58724 16.7754 9.18318 16.9774C9.18318 16.9774 -1.92847 22.9979 0.293862 27.3213C2.51619 31.6044 13.9107 31.5236 25.9517 29.0184C45.9122 24.8566 54.1147 17.4623 55.044 16.8966C55.5693 16.6138 55.3672 17.139 55.2864 17.7047Z" fill="#00AFAA"/>
<path id="Vector_2" d="M44.9426 9.82532C42.195 10.1082 40.6596 10.6334 39.9323 10.8355C39.1242 11.0779 38.6393 11.4416 38.5989 11.7244C38.5585 11.9668 38.7201 12.0477 39.407 12.0072C40.2959 11.9264 44.6598 11.1183 47.2458 11.1183C50.357 11.1183 52.1753 11.5224 52.7814 12.3305C53.5087 13.2598 50.8015 16.7347 40.7 20.1692C29.952 23.8462 21.6688 25.2604 10.5975 26.1089C9.87022 26.1493 9.50656 26.513 10.84 26.7554C12.8603 27.1191 23.0426 27.3211 36.4978 23.0785C49.9126 18.8359 55.1249 14.0679 53.7107 11.5628C53.145 10.4314 50.2762 9.30005 44.9426 9.82532Z" fill="#00AFAA"/>
<path id="Vector_3" d="M23.5678 5.3808C25.7901 3.88578 30.9216 2.43116 36.0128 4.93633C43.3667 8.53246 46.0739 17.0177 42.1545 23.8463C38.518 30.2305 32.5379 30.8366 30.4368 30.9982C28.4973 31.1194 24.6991 30.9578 22.8 30.5941C21.9515 30.4325 21.9111 30.9982 22.4364 31.1598C24.8607 31.8871 31.649 33.7458 38.1139 30.1093C45.185 26.1495 46.68 19.6441 45.0233 12.9771C43.1647 5.66364 36.4573 1.66344 29.3458 1.98669C25.3456 2.14831 23.2041 4.28983 22.9213 5.13836C22.7192 5.62323 23.0425 5.74445 23.5678 5.3808Z" fill="#00AFAA"/>
<path id="Vector_4" d="M20.2137 7.80521C20.8602 7.11831 21.143 6.87587 21.4259 6.55262C21.6279 6.35059 20.941 5.90613 19.7692 6.59303C18.5974 7.27993 15.4862 10.8356 14.7589 14.9167C13.7891 20.4119 16.658 25.1798 18.5166 26.7152C20.2541 28.1294 20.3349 27.2809 20.0117 26.9981C19.7288 26.7152 17.3045 24.1292 16.5367 20.2907C15.9711 17.4622 16.0115 15.644 16.9408 12.9772C17.7489 10.674 19.85 8.20927 20.2137 7.80521Z" fill="#00AFAA"/>
<path id="Vector_5" d="M38.9626 13.3004C33.5078 10.2699 26.6388 8.49206 22.7598 7.84556C21.7093 7.68394 21.184 8.53246 22.1133 8.69409C27.9318 9.74464 32.0128 10.7548 38.8818 13.8661C38.9626 13.9065 39.2051 13.9065 39.2859 13.7852C39.3667 13.664 39.2455 13.462 38.9626 13.3004Z" fill="#00AFAA"/>
<path id="Vector_6" d="M42.3566 17.341C34.4775 13.2196 24.2143 11.5225 19.8909 11.0781C18.9212 10.9569 18.4767 12.0074 19.3252 12.0882C29.75 13.26 36.7806 15.3611 42.1142 17.8663C42.2354 17.9067 42.4374 17.9875 42.5587 17.8259C42.6799 17.7047 42.6395 17.5026 42.3566 17.341Z" fill="#00AFAA"/>
<path id="Vector_7" d="M18.7192 16.0481C27.1237 16.3309 35.6493 18.1896 38.8414 19.1189C39.0434 19.1593 39.1647 19.0785 39.2051 18.9573C39.2455 18.8361 39.1242 18.6745 38.8818 18.5936C27.851 15.2399 20.4163 15.0783 18.8 15.0783C17.9111 14.9975 17.507 16.0077 18.7192 16.0481Z" fill="#00AFAA"/>
<path id="Vector_8" d="M30.3964 3.11793L30.76 2.95631V2.75428V2.63306C30.7196 2.63306 30.6792 2.63306 30.6792 2.63306C28.9013 2.63306 27.0831 4.00686 25.5881 6.47163C23.8506 9.30005 22.8404 13.2194 22.7192 17.4621C22.4364 26.9575 25.3456 35.1195 28.7801 35.2407H28.8205C29.7095 35.2407 30.7196 34.7154 30.9216 33.382C30.9216 33.2608 30.9621 32.8567 30.76 32.8163C30.558 32.7759 30.4772 33.0184 30.356 33.3012C30.0731 33.9477 29.467 34.0689 28.8609 34.0285C27.7296 33.9881 26.3962 32.3719 25.4668 28.9778C24.4567 25.3008 23.8102 21.139 24.0122 16.8964C24.3759 7.92625 28.0124 2.99672 30.3964 3.11793Z" fill="#00AFAA"/>
<path id="Vector_9" d="M37.629 31.9274C37.629 31.9274 37.5886 31.5638 37.3865 31.5638C37.2249 31.5638 37.1845 31.8062 37.1845 31.9678C37.1037 32.5335 36.8613 32.8972 36.4572 33.0184C36.336 33.0588 36.0531 32.978 35.8915 32.8568C34.2349 31.7254 31.6085 25.3412 30.6791 17.6237C29.6286 9.01721 31.8509 3.52199 33.3459 3.11793L33.5884 2.9159L33.548 2.79468C33.4671 2.83508 33.3863 2.8755 33.2651 2.9159H33.1035L33.0631 2.79468C30.5579 3.56239 28.6184 10.4314 29.7498 19.442C30.7195 27.1191 33.1843 32.5335 35.245 33.8669C35.5683 34.1093 35.8915 34.1901 36.2148 34.1901C36.2956 34.1901 36.4168 34.1901 36.4976 34.1497C37.1845 33.8669 37.7502 33.0588 37.629 31.9274Z" fill="#00AFAA"/>
<path id="Vector_10" d="M36.6593 19.4423C36.6188 19.2402 36.5784 19.119 36.3764 18.3513C35.5683 15.1188 34.7602 9.98726 35.4875 6.26991C35.4875 6.1891 35.5279 6.10829 35.5279 6.06788C35.5683 5.82545 35.5279 5.70423 35.3663 5.70423C35.2046 5.66383 35.043 5.82544 35.043 6.02747C35.043 6.06788 35.0026 6.10829 35.0026 6.1487C34.1945 10.1489 34.5581 15.8865 35.7299 19.8059C36.0128 20.8161 36.9017 20.2504 36.6593 19.4423Z" fill="#00AFAA"/>
<path id="Vector_11" d="M21.3455 4.28985C21.3051 3.64336 20.7798 3.15848 20.1334 3.19889C19.4869 3.23929 19.002 3.76457 19.0424 4.41107C19.0828 5.05756 19.6081 5.54244 20.2546 5.50203C20.9011 5.46163 21.3859 4.89594 21.3455 4.28985Z" fill="#00AFAA"/>
<path id="Vector_12" d="M56.6602 22.4727C56.6602 21.8262 56.1349 21.3413 55.5288 21.3413C54.8823 21.3413 54.3975 21.8666 54.3975 22.4727C54.3975 23.1192 54.9227 23.604 55.5288 23.604C56.1349 23.6444 56.6602 23.1192 56.6602 22.4727Z" fill="#00AFAA"/>
<path id="Vector_13" d="M23.8097 1.42104C23.7693 0.572511 23.042 -0.0739848 22.1935 0.00682723C21.345 0.0472332 20.6985 0.774541 20.7793 1.62307C20.8197 2.47159 21.547 3.11809 22.3955 3.03728C23.2036 2.95647 23.8501 2.26956 23.8097 1.42104Z" fill="#00AFAA"/>
<path id="Vector_14" d="M60.7008 27.8869C60.5392 27.0384 59.6907 25.8262 58.3977 24.7352C57.7108 24.1695 57.0643 24.5332 57.6704 25.0585C58.3169 25.6242 62.6403 30.1496 56.4986 30.4325C54.5187 30.5133 50.5589 30.19 42.9222 28.1293C42.4777 28.0081 41.9928 27.8869 41.4676 27.7253C40.8615 27.5636 40.2554 27.3616 39.6089 27.1596C38.6795 26.8767 37.7098 26.5535 36.6592 26.1898C35.6895 25.8666 34.7197 25.5029 33.6692 25.0989C33.1035 24.8969 32.4974 24.6544 31.8913 24.412C31.8105 24.3716 31.7297 24.3312 31.6085 24.2908C31.0832 24.0887 30.5579 23.8867 30.0327 23.6443C29.8306 23.5635 29.5882 23.4826 29.3862 23.3614C27.6487 22.6341 25.8304 21.7452 24.0526 20.8967C23.5273 20.6542 23.002 20.3714 22.4767 20.1289C20.2544 18.9976 18.0725 17.7854 16.0926 16.5328C15.5269 16.1692 15.0016 15.8459 14.4763 15.4823C13.4258 14.755 11.8904 13.664 10.961 12.8963C4.01119 7.15862 10.8398 7.11822 18.1129 8.00715C18.5978 8.04756 19.0826 8.12837 19.5675 8.20918L20.214 7.11821C19.8503 7.07781 19.4463 6.997 19.0826 6.95659C13.547 6.18888 9.74884 6.47172 8.17301 7.48187C7.12245 8.16877 5.70824 10.0275 10.1529 13.866C11.3247 14.8762 12.7389 15.9671 14.3147 17.0581C14.8804 17.4622 15.4865 17.8258 16.0926 18.2299C18.0321 19.4824 20.214 20.7754 22.5575 22.028C23.0828 22.3109 23.6081 22.5937 24.1738 22.8766C24.9011 23.2402 25.6688 23.6039 26.4365 23.9675C27.2042 24.3312 28.0124 24.6948 28.7801 25.0585C29.3458 25.3009 29.871 25.5434 30.4367 25.7858C30.4771 25.8262 30.5579 25.8262 30.5983 25.8666C31.0832 26.0686 31.5681 26.2707 32.053 26.4727C32.5378 26.6747 33.0227 26.8767 33.5076 27.0384C34.8814 27.5636 36.2956 28.0485 37.6694 28.5334C38.2755 28.7354 38.8816 28.9374 39.5281 29.0991C40.1746 29.3011 40.8211 29.4627 41.4676 29.6244C50.1144 31.9275 54.9632 32.2103 57.7512 31.5638C57.7512 31.5638 57.7512 31.5638 57.7916 31.5638C58.034 31.5234 61.3069 30.8365 60.7008 27.8869Z" fill="#00AFAA"/>
<path id="Vector_15" d="M93.4295 25.3819H91.6516C91.5304 25.3819 91.4496 25.3011 91.4496 25.1799V20.0483C91.4496 18.6341 91.5304 17.4219 91.5304 16.331C91.5304 16.2097 91.6112 15.8865 91.5304 15.8865C91.4496 15.8865 91.3688 16.0885 91.3284 16.0885C91.0455 16.5734 90.4798 17.4219 90.1566 17.9068L85.7119 24.2101C85.6311 24.3313 85.4695 24.3313 85.4291 24.2101L80.8632 17.9068C80.54 17.4219 80.0147 16.533 79.6914 16.0481C79.6106 15.8865 79.6106 15.8461 79.5298 15.8865C79.449 15.9269 79.4894 16.1693 79.4894 16.2906C79.5298 17.3815 79.5702 18.5129 79.5702 19.9675V25.2203C79.5702 25.3011 79.4894 25.4223 79.3682 25.4223H77.6307C77.5095 25.4223 77.4287 25.3415 77.4287 25.2203V10.068C77.4287 9.90641 77.6711 9.8256 77.752 9.94682C79.1258 11.8863 84.3785 19.321 85.3483 20.7352C85.4291 20.8564 85.5907 20.8564 85.6311 20.7352C86.6009 19.321 91.8537 11.9267 93.2275 9.94682C93.3487 9.7852 93.5507 9.866 93.5507 10.068V25.2203C93.5911 25.3011 93.5103 25.3819 93.4295 25.3819Z" fill="#333E48"/>
<path id="Vector_16" d="M109.349 25.7051C105.309 25.7051 103.046 23.3212 103.046 19.0381V10.3912C103.046 10.2296 103.167 10.1084 103.329 10.1084H104.905C105.066 10.1084 105.187 10.2296 105.187 10.3912V19.0381C105.187 22.1494 106.561 23.6848 109.349 23.6848C112.178 23.6848 113.511 22.1898 113.511 19.0381V10.3912C113.511 10.2296 113.632 10.1084 113.794 10.1084H115.37C115.531 10.1084 115.653 10.2296 115.653 10.3912V19.0381C115.653 23.2808 113.349 25.7051 109.349 25.7051Z" fill="#333E48"/>
<path id="Vector_17" d="M134.28 17.2604C134.078 17.1392 134.038 16.8563 134.24 16.6947C135.048 16.0886 135.695 15.1189 135.695 13.9875C135.695 11.7248 133.836 10.1489 131.209 10.1489H126.32C126.159 10.1489 125.997 10.3105 125.997 10.4722V25.0991C125.997 25.2608 126.159 25.4224 126.32 25.4224H131.573C134.684 25.4224 136.664 23.6445 136.664 20.8565C136.664 19.1191 135.492 17.8665 134.28 17.2604ZM128.139 12.3713C128.139 12.2096 128.3 12.048 128.462 12.048H130.886C132.543 12.048 133.593 12.8965 133.593 14.1491C133.593 15.4017 132.422 16.331 130.886 16.331H128.462C128.3 16.331 128.139 16.1694 128.139 16.0078V12.3713ZM131.452 23.4829H128.462C128.3 23.4829 128.139 23.3213 128.139 23.1597V18.3917C128.139 18.2301 128.3 18.0685 128.462 18.0685H131.371C133.109 18.0685 134.482 19.2403 134.482 20.7757C134.482 22.3919 133.27 23.4829 131.452 23.4829Z" fill="#333E48"/>
<path id="Vector_18" d="M174.12 10.1489H168.463C168.342 10.1489 168.221 10.2701 168.221 10.3914V25.1396C168.221 25.2608 168.342 25.382 168.463 25.382H174.241C178.645 25.382 181.999 22.1495 181.999 17.8261C181.999 13.4622 178.605 10.1489 174.12 10.1489ZM174.241 23.3617H170.605C170.483 23.3617 170.362 23.2405 170.362 23.1193V12.4117C170.362 12.2904 170.483 12.1692 170.605 12.1692H174.12C177.433 12.1692 179.817 14.5532 179.817 17.8665C179.817 21.4626 177.029 23.3617 174.241 23.3617Z" fill="#333E48"/>
<path id="Vector_19" d="M220.668 25.382H210.931C210.809 25.382 210.729 25.3012 210.729 25.18V10.351C210.729 10.2297 210.809 10.1489 210.931 10.1489H212.628C212.749 10.1489 212.83 10.2297 212.83 10.351V23.1597C212.83 23.2809 212.91 23.3617 213.032 23.3617H221.436C221.598 23.3617 221.679 23.5233 221.638 23.6445L220.87 25.2608C220.83 25.3416 220.749 25.382 220.668 25.382Z" fill="#333E48"/>
<path id="Vector_20" d="M159.857 25.3818H157.999C157.918 25.3818 157.877 25.3414 157.837 25.301L156.665 22.9575C156.625 22.9171 156.584 22.8767 156.504 22.8767H149.837C149.715 22.8767 149.635 22.7554 149.675 22.6342L150.483 21.0584C150.524 21.018 150.564 20.9776 150.645 20.9776H155.372C155.493 20.9776 155.574 20.8564 155.534 20.7352L152.14 13.8257C152.14 13.8257 152.14 13.7853 152.099 13.7449C152.099 13.7853 152.059 13.8257 152.059 13.8257L146.402 25.301C146.362 25.3414 146.321 25.3818 146.241 25.3818H144.463C144.341 25.3818 144.261 25.2606 144.301 25.1394L151.978 9.74472C152.059 9.6235 152.221 9.6235 152.261 9.74472L159.979 25.099C160.059 25.2202 159.979 25.3818 159.857 25.3818Z" fill="#333E48"/>
<path id="Vector_21" d="M203.536 25.3818H201.677C201.597 25.3818 201.556 25.3414 201.516 25.301L200.344 22.9575C200.304 22.9171 200.263 22.8767 200.182 22.8767H193.515C193.394 22.8767 193.313 22.7554 193.354 22.6342L194.162 21.0584C194.202 21.018 194.243 20.9776 194.323 20.9776H199.051C199.172 20.9776 199.253 20.8564 199.213 20.7352L195.819 13.8257C195.819 13.8257 195.819 13.7853 195.778 13.7449C195.778 13.7853 195.738 13.8257 195.738 13.8257L190.081 25.301C190.04 25.3414 190 25.3818 189.919 25.3818H188.141C188.02 25.3818 187.939 25.2606 187.98 25.1394L195.657 9.74472C195.738 9.6235 195.899 9.6235 195.98 9.74472L203.698 25.099C203.738 25.2202 203.657 25.3818 203.536 25.3818Z" fill="#333E48"/>
<path id="Vector_22" d="M242.286 25.3818H240.427C240.346 25.3818 240.306 25.3414 240.265 25.301L239.093 22.9575C239.053 22.9171 239.013 22.8767 238.932 22.8767H232.265C232.144 22.8767 232.063 22.7554 232.103 22.6342L232.911 21.0584C232.952 21.018 232.992 20.9776 233.073 20.9776H237.801C237.922 20.9776 238.003 20.8564 237.962 20.7352L234.568 13.8257C234.568 13.8257 234.568 13.7853 234.528 13.7449C234.528 13.7853 234.487 13.8257 234.487 13.8257L228.83 25.301C228.79 25.3414 228.75 25.3818 228.669 25.3818H226.891C226.77 25.3818 226.689 25.2606 226.729 25.1394L234.406 9.74472C234.487 9.6235 234.649 9.6235 234.73 9.74472L242.447 25.099C242.488 25.2202 242.407 25.3818 242.286 25.3818Z" fill="#333E48"/>
</g>
</svg>
