<svg width="217" height="56" viewBox="0 0 217 56" fill="none" xmlns="http://www.w3.org/2000/svg">
<path id="Vector" d="M194.076 32.2478C194.453 30.9998 197.741 26.5166 204.544 27.6954C214.84 29.8468 216.346 22.771 216.157 21.3428C216.391 17.993 213.037 11.7457 204.071 16.3495C196.012 20.8101 193.841 32.2683 193.841 32.2683L194.076 32.2478ZM195.885 14.3701H183.444L174.375 54.5323L186.673 54.5085L195.885 14.3701ZM34.2667 14.7102C46.5662 16.4731 43.6444 26.9873 43.6444 26.9873L37.1862 54.424H24.8451L25.9508 49.3656C17.7634 57.0898 3.92053 58.046 0.614454 47.4152C-0.390388 43.6564 0.446776 39.1669 4.33697 35.5469C12.6819 28.4288 31.2843 28.7948 31.2843 28.7948C33.217 17.5509 14.4333 22.3702 9.33734 25.8097C9.76417 25.3162 17.1636 14.808 17.1636 14.808C28.1125 13.3695 34.2667 14.7102 34.2667 14.7102ZM30.6971 32.1827C30.4368 33.1976 27.9263 36.8979 22.4251 36.1508C14.0918 34.7248 13.0878 40.4518 13.2868 41.5965C13.3119 44.2973 15.9201 49.1741 23.1488 45.2493C29.4882 41.4265 30.8856 32.1611 30.8856 32.1611L30.6971 32.1829V32.1827ZM77.9015 14.7102C90.2032 16.4731 87.2812 26.9873 87.2812 26.9873L80.8296 54.424H68.4757L69.5909 49.3656C61.3992 57.0898 47.5616 58.046 44.2525 47.4152C43.2444 43.6552 44.0828 39.1669 47.976 35.5469C56.3177 28.4288 74.9224 28.7948 74.9224 28.7948C76.8538 17.5509 58.0774 22.3702 52.9711 25.8097C53.4053 25.3162 60.7984 14.808 60.7984 14.808C71.7465 13.3695 77.9015 14.7102 77.9015 14.7102ZM74.3319 32.1796C74.0736 33.1978 71.5641 36.8979 66.0642 36.1508C57.7266 34.7248 56.7268 40.4518 56.9239 41.5965C56.9467 44.2973 59.5562 49.1741 66.7836 45.2493C73.1209 41.4265 74.5163 32.1611 74.5163 32.1611L74.3319 32.1796ZM166.114 14.7102C178.415 16.4731 175.498 26.9873 175.498 26.9873L169.039 54.424H156.694L157.803 49.3656C149.611 57.0898 135.775 58.046 132.467 47.4152C131.457 43.6552 132.297 39.1669 136.19 35.5469C144.53 28.428 163.134 28.7948 163.134 28.7948C165.069 17.5509 146.287 22.3692 141.188 25.8097C141.616 25.3162 149.01 14.808 149.01 14.808C159.962 13.3717 166.114 14.7102 166.114 14.7102ZM162.544 32.1796C162.281 33.1978 159.77 36.8979 154.274 36.1508C145.94 34.7248 144.939 40.4518 145.131 41.5965C145.161 44.2973 147.771 49.1741 154.993 45.2493C161.335 41.4296 162.732 32.1611 162.732 32.1611L162.544 32.1796ZM110.762 0L106.504 18.8235C123.395 6.74492 131.913 18.1269 132.031 26.6918C133.37 35.4853 122.46 63 99.0467 51.6956C98.8823 52.2025 98.4771 54.2005 98.4771 54.2005H86.0747L98.5667 0L110.762 0ZM100.276 45.2824C100.467 44.0632 102.968 39.4584 109.48 39.7129C119.381 40.4382 119.885 33.6377 119.532 32.3198C119.186 29.1688 115.578 23.7654 107.595 29.1637C100.624 34.3445 100.055 45.3225 100.055 45.3225L100.276 45.2822V45.2824Z" fill="#E31836"/>
</svg>
