<svg width="217" height="79" viewBox="0 0 217 79" fill="none" xmlns="http://www.w3.org/2000/svg">
<g id="Group">
<g id="Group_2">
<path id="Vector" d="M177.8 28.972L187.26 19.522L216.54 48.802L187.44 78.082L177.8 68.672L197.63 48.802L177.8 28.972Z" fill="#F68841"/>
<path id="Vector_2" d="M196.9 9.72262L187.177 0L177.943 9.23473L187.665 18.9574L196.9 9.72262Z" fill="#0058A4"/>
</g>
<g id="Group_3">
<path id="Vector_3" d="M149.6 49.2819C148.77 49.2819 148.01 49.1519 147.34 48.8919C145.96 48.3619 144.92 47.3019 144.33 45.8019C143.81 44.4819 143.75 43.0019 144.14 41.5019C146.49 32.4919 156.05 32.8419 156.15 32.8419L156.07 34.6019C155.74 34.5919 147.84 34.3319 145.86 41.9419C145.57 43.0719 145.61 44.1819 145.99 45.1519C146.39 46.1819 147.06 46.8819 147.98 47.2319C149.73 47.9019 152.47 47.3219 155.9 45.5819L156.7 47.1619C153.93 48.5819 151.55 49.2819 149.6 49.2819Z" fill="#0058A4"/>
<path id="Vector_4" d="M147.04 56.5419C146.28 56.5419 145.49 56.4819 144.66 56.3619L144.91 54.6119C148.58 55.1319 151.37 54.3619 153.24 52.3219C158.39 46.6819 155.29 33.2019 155.26 33.0719L156.98 32.6619C157.12 33.2519 160.32 47.1819 154.55 53.5119C152.7 55.5319 150.18 56.5419 147.04 56.5419Z" fill="#0058A4"/>
<path id="Vector_5" d="M36.8099 48.8217C35.9799 48.8217 35.2199 48.6917 34.5499 48.4317C33.1699 47.9017 32.1299 46.8417 31.5399 45.3417C31.0199 44.0217 30.9599 42.5417 31.3499 41.0417C33.6999 32.0317 43.2599 32.3817 43.3599 32.3817L43.2699 34.1617C42.9399 34.1517 35.0399 33.8917 33.0599 41.5017C32.7699 42.6317 32.8099 43.7417 33.1899 44.7117C33.5899 45.7417 34.2599 46.4417 35.1799 46.7917C36.9299 47.4617 39.6699 46.8817 43.0999 45.1417L43.8999 46.7217C41.1299 48.1217 38.7599 48.8217 36.8099 48.8217Z" fill="#F68841"/>
<path id="Vector_6" d="M34.2399 56.0819C33.4799 56.0819 32.6899 56.0219 31.8599 55.9019L32.1099 54.1519C35.7699 54.6719 38.5799 53.9019 40.4399 51.8619C45.5899 46.2219 42.4899 32.7419 42.4599 32.6119L44.1799 32.2019C44.3199 32.7919 47.5199 46.7219 41.7499 53.0519C39.8999 55.0719 37.3899 56.0819 34.2399 56.0819Z" fill="#F68841"/>
<path id="Vector_7" d="M139.42 25.8618H137.65V48.4818H139.42V25.8618Z" fill="#0058A4"/>
<path id="Vector_8" d="M131.31 49.3619C129.43 49.3519 113.26 49.3619 106.39 49.3619C105.45 49.3619 104.57 49.0019 103.91 48.3319C103.25 47.6719 102.88 46.7919 102.88 45.8519V32.4119H104.65V45.8519C104.65 46.3219 104.83 46.7519 105.16 47.0819C105.49 47.4119 105.93 47.5919 106.39 47.5919C113.26 47.5919 129.44 47.5819 131.32 47.5919L131.31 49.3619Z" fill="#0058A4"/>
<path id="Vector_9" d="M80.1401 25.8618H78.3701V48.4818H80.1401V25.8618Z" fill="#F68841"/>
<path id="Vector_10" d="M72.44 49.3617H60.23V34.1217H62V47.5917H70.68V26.5217H72.44V49.3617Z" fill="#F68841"/>
<path id="Vector_11" d="M53.68 56.3719L53.54 54.6119C58.72 54.1919 60.2 48.9419 60.26 48.7119L61.97 49.1719C61.95 49.2319 60.12 55.8419 53.68 56.3719Z" fill="#F68841"/>
<path id="Vector_12" d="M50.6899 26.5217H48.9199V48.9417H50.6899V26.5217Z" fill="#F68841"/>
<path id="Vector_13" d="M20.7902 49.3617H14.7902C12.2402 49.3617 10.1602 47.2817 10.1602 44.7317V33.2617H11.9302V44.7317C11.9302 46.3117 13.2102 47.5917 14.7902 47.5917H20.7902C22.3702 47.5917 23.6502 46.3117 23.6502 44.7317V33.2617H25.4202V44.7317C25.4202 47.2817 23.3502 49.3617 20.7902 49.3617Z" fill="#F68841"/>
<path id="Vector_14" d="M128.78 48.4719H127.01V43.1019C127.01 41.0619 126.36 39.1019 125.17 37.5819C124.12 36.2419 122.97 35.6019 121.66 35.6119C118.22 35.6419 114.81 40.1119 114.78 40.1619L113.37 39.1019C113.53 38.8919 117.33 33.8919 121.64 33.8519C123.52 33.8319 125.17 34.7219 126.57 36.5019C128 38.3219 128.78 40.6719 128.78 43.1119V48.4719Z" fill="#0058A4"/>
<g id="Group_4">
<g id="Group_5">
<path id="Vector_15" d="M0 39.9718C0 35.5018 2.94 33.3318 5.86 33.3318C8.76 33.3318 11.72 35.5018 11.72 39.9718C11.72 44.4418 8.75 46.5018 5.86 46.5018C2.95 46.5118 0 44.4418 0 39.9718ZM10.26 39.9718C10.26 36.3118 8.55 34.1318 5.87 34.1318C3.17 34.1318 1.48 36.3118 1.48 39.9718C1.48 43.6318 3.16 45.7118 5.87 45.7118C8.55 45.7118 10.26 43.6318 10.26 39.9718Z" fill="#F68841"/>
</g>
</g>
<g id="Group_6">
<g id="Group_7">
<path id="Vector_16" d="M91.1099 39.1017C91.1099 34.0017 94.4699 31.5217 97.7999 31.5217C101.11 31.5217 104.49 33.9917 104.49 39.1017C104.49 44.2017 101.11 46.5517 97.7999 46.5517C94.4699 46.5517 91.1099 44.2017 91.1099 39.1017ZM102.81 39.1017C102.81 34.9317 100.86 32.4417 97.7999 32.4417C94.7199 32.4417 92.7899 34.9317 92.7899 39.1017C92.7899 43.2717 94.7199 45.6417 97.7999 45.6417C100.85 45.6417 102.81 43.2717 102.81 39.1017Z" fill="#0058A4"/>
</g>
</g>
<path id="Vector_17" d="M6.73994 31.9318C7.45791 31.9318 8.03994 31.3498 8.03994 30.6318C8.03994 29.9138 7.45791 29.3318 6.73994 29.3318C6.02197 29.3318 5.43994 29.9138 5.43994 30.6318C5.43994 31.3498 6.02197 31.9318 6.73994 31.9318Z" fill="#F68841"/>
<path id="Vector_18" d="M3.42988 31.9318C4.14785 31.9318 4.72988 31.3498 4.72988 30.6318C4.72988 29.9138 4.14785 29.3318 3.42988 29.3318C2.71191 29.3318 2.12988 29.9138 2.12988 30.6318C2.12988 31.3498 2.71191 31.9318 3.42988 31.9318Z" fill="#F68841"/>
<path id="Vector_19" d="M19.0798 53.5119C19.7978 53.5119 20.3798 52.9298 20.3798 52.2119C20.3798 51.4939 19.7978 50.9119 19.0798 50.9119C18.3618 50.9119 17.7798 51.4939 17.7798 52.2119C17.7798 52.9298 18.3618 53.5119 19.0798 53.5119Z" fill="#F68841"/>
<path id="Vector_20" d="M61.5202 31.2118C62.2382 31.2118 62.8202 30.6298 62.8202 29.9118C62.8202 29.1938 62.2382 28.6118 61.5202 28.6118C60.8022 28.6118 60.2202 29.1938 60.2202 29.9118C60.2202 30.6298 60.8022 31.2118 61.5202 31.2118Z" fill="#F68841"/>
<path id="Vector_21" d="M15.7702 53.5119C16.4882 53.5119 17.0702 52.9298 17.0702 52.2119C17.0702 51.4939 16.4882 50.9119 15.7702 50.9119C15.0522 50.9119 14.4702 51.4939 14.4702 52.2119C14.4702 52.9298 15.0522 53.5119 15.7702 53.5119Z" fill="#F68841"/>
<path id="Vector_22" d="M99.4899 29.9218C100.208 29.9218 100.79 29.3398 100.79 28.6218C100.79 27.9038 100.208 27.3218 99.4899 27.3218C98.772 27.3218 98.1899 27.9038 98.1899 28.6218C98.1899 29.3398 98.772 29.9218 99.4899 29.9218Z" fill="#0058A4"/>
<path id="Vector_23" d="M96.1799 29.9218C96.8979 29.9218 97.4799 29.3398 97.4799 28.6218C97.4799 27.9038 96.8979 27.3218 96.1799 27.3218C95.4619 27.3218 94.8799 27.9038 94.8799 28.6218C94.8799 29.3398 95.4619 29.9218 96.1799 29.9218Z" fill="#0058A4"/>
</g>
<g id="Group_8">
<g id="Group_9">
<path id="Vector_24" d="M10.6198 64.562L8.2998 64.292V63.562H13.1398V64.292L10.9898 64.562H10.6198ZM16.7098 63.572H17.3498L20.5298 73.502L20.0498 73.612L22.8298 63.572H23.7298L20.4798 75.592H19.7098L16.3298 65.502L16.9098 65.472L13.7298 75.592H12.9798L9.50981 63.572H11.2498L13.9198 73.502L13.3898 73.612L16.7098 63.572ZM16.8898 64.562L14.6198 64.292V63.562H19.4498V64.292L17.2798 64.562H16.8898ZM22.7898 64.562L20.9398 64.292V63.562H24.9798V64.292L23.1598 64.562H22.7898Z" fill="#0058A4"/>
<path id="Vector_25" d="M25.2197 74.7519L26.9997 74.4819H27.3497L29.2897 74.7519V75.4719H25.2197V74.7519ZM30.4997 63.4919H31.6097L35.6897 75.4719H33.9697L30.4297 64.8919L30.8497 64.8419L27.2397 75.4819H26.3897L30.4997 63.4919ZM28.4297 70.782H33.2297L33.5197 71.6119H28.1397L28.4297 70.782ZM31.9097 74.7519L34.1397 74.4819H34.5397L36.7497 74.7519V75.4719H31.9097V74.7519Z" fill="#0058A4"/>
<path id="Vector_26" d="M37.7197 64.302V63.572H42.7297V64.302L40.3997 64.572H40.0397L37.7197 64.302ZM40.3997 74.482L42.7297 74.752V75.472H37.7197V74.752L40.0397 74.482H40.3997ZM39.3797 69.082C39.3797 67.252 39.3797 65.402 39.3297 63.572H41.1197C41.0697 65.372 41.0697 67.212 41.0697 69.082V69.612C41.0697 71.782 41.0697 73.632 41.1197 75.462H39.3297C39.3797 73.662 39.3797 71.822 39.3797 69.952V69.082ZM40.2197 69.792V68.962H47.6497V69.792H40.2197ZM45.1497 64.302V63.572H50.1597V64.302L47.8397 64.572H47.4697L45.1497 64.302ZM47.8297 74.482L50.1497 74.752V75.472H45.1397V74.752L47.4597 74.482H47.8297ZM46.8097 69.082C46.8097 67.252 46.8097 65.402 46.7597 63.572H48.5497C48.4997 65.372 48.4997 67.212 48.4997 69.082V69.962C48.4997 71.792 48.4997 73.642 48.5497 75.472H46.7597C46.8097 73.672 46.8097 71.832 46.8097 69.622V69.082Z" fill="#0058A4"/>
<path id="Vector_27" d="M51.04 74.7519L52.82 74.4819H53.17L55.11 74.7519V75.4719H51.04V74.7519ZM56.32 63.4919H57.43L61.51 75.4719H59.78L56.24 64.8919L56.66 64.8419L53.05 75.4819H52.2L56.32 63.4919ZM54.25 70.782H59.05L59.34 71.6119H53.97L54.25 70.782ZM57.73 74.7519L59.96 74.4819H60.36L62.57 74.7519V75.4719H57.73V74.7519Z" fill="#0058A4"/>
<path id="Vector_28" d="M63.8599 64.472L64.6899 63.572L64.1299 66.742H63.1099L63.2499 63.572H72.9999L73.1399 66.742H72.1199L71.5599 63.572L72.3899 64.472H63.8599ZM68.2999 74.482L70.7999 74.752V75.472H65.4199V74.752L67.9199 74.482H68.2999ZM67.2699 69.082C67.2699 67.252 67.2699 65.402 67.2199 63.572H69.0099C68.9599 65.372 68.9599 67.212 68.9599 69.082V69.962C68.9599 71.792 68.9599 73.642 69.0099 75.472H67.2199C67.2699 73.672 67.2699 71.832 67.2699 69.962V69.082Z" fill="#0058A4"/>
<path id="Vector_29" d="M77.71 74.7519L79.49 74.4819H79.84L81.78 74.7519V75.4719H77.71V74.7519ZM83 63.4919H84.11L88.19 75.4719H86.46L82.92 64.8919L83.34 64.8419L79.73 75.4819H78.88L83 63.4919ZM80.93 70.782H85.73L86.02 71.6119H80.64L80.93 70.782ZM84.4 74.7519L86.63 74.4819H87.03L89.24 74.7519V75.4719H84.4V74.7519Z" fill="#F68841"/>
<path id="Vector_30" d="M90.21 64.302V63.572H95.24V64.302L92.91 64.572H92.54L90.21 64.302ZM92.72 74.482V75.472H90.21V74.752L92.54 74.482H92.72ZM91.82 63.572H93.61C93.56 65.402 93.56 67.252 93.56 69.082V70.312C93.56 71.822 93.56 73.672 93.61 75.472H91.82C91.87 73.642 91.87 71.792 91.87 69.982V69.082C91.88 67.222 91.88 65.372 91.82 63.572ZM99.24 72.122L99.06 75.472H92.71V74.572H98.44L97.44 75.472L98.15 72.122H99.24Z" fill="#F68841"/>
<path id="Vector_31" d="M113.21 63.572V64.202L105.91 75.462H104.51V74.832L111.83 63.572H113.21ZM104.68 66.752L104.82 63.582H112.55V64.482H105.44L106.44 63.582L105.76 66.752H104.68ZM113.58 72.302L113.44 75.472H105.17V74.572H112.82L111.82 75.472L112.49 72.302H113.58Z" fill="#F68841"/>
<path id="Vector_32" d="M114.03 74.7519L115.81 74.4819H116.16L118.1 74.7519V75.4719H114.03V74.7519ZM119.32 63.4919H120.43L124.51 75.4719H122.78L119.24 64.8919L119.66 64.8419L116.05 75.4819H115.2L119.32 63.4919ZM117.25 70.782H122.05L122.34 71.6119H116.96L117.25 70.782ZM120.72 74.7519L122.95 74.4819H123.35L125.56 74.7519V75.4719H120.72V74.7519Z" fill="#F68841"/>
<path id="Vector_33" d="M128.32 64.562L126 64.292V63.562H130.84V64.292L128.69 64.562H128.32ZM134.41 63.572H135.05L138.23 73.502L137.75 73.612L140.53 63.572H141.43L138.18 75.592H137.41L134.03 65.502L134.61 65.472L131.43 75.592H130.68L127.21 63.572H128.95L131.62 73.502L131.09 73.612L134.41 63.572ZM134.6 64.562L132.33 64.292V63.562H137.16V64.292L134.99 64.562H134.6ZM140.49 64.562L138.64 64.292V63.562H142.68V64.292L140.86 64.562H140.49Z" fill="#F68841"/>
<path id="Vector_34" d="M143.62 64.302V63.572H146.13V64.562H145.95L143.62 64.302ZM146.13 74.482V75.472H143.62V74.752L145.95 74.482H146.13ZM145.29 69.082C145.29 67.252 145.29 65.402 145.24 63.572H147.03C146.98 65.372 146.98 67.212 146.98 69.082V69.752C146.98 71.792 146.98 73.632 147.03 75.472H145.24C145.29 73.672 145.29 71.832 145.29 69.962V69.082ZM151.02 63.572L151.85 64.472H146.13V63.572H152.47L152.59 66.732H151.57L151.02 63.572ZM150.14 69.812H146.13V68.982H150.14V69.812ZM152.95 72.312L152.83 75.472H146.14V74.582H152.21L151.38 75.472L151.93 72.312H152.95ZM149.58 69.162L149.85 67.292H150.66V71.482H149.85L149.58 69.522V69.162Z" fill="#F68841"/>
<path id="Vector_35" d="M153.81 64.302V63.572H158.83V64.302L156.52 64.572H156.14L153.81 64.302ZM158.67 71.482L154.78 63.572H156.72L159.93 70.532H159.31L162.61 63.572H163.53L159.71 71.482H158.67ZM159.39 74.482L161.89 74.752V75.472H156.51V74.752L159.01 74.482H159.39ZM158.36 70.132H160.04C160.04 72.192 160.04 73.892 160.09 75.472H158.3C158.36 73.922 158.36 72.212 158.36 70.132ZM162.52 64.562L160.56 64.292V63.562H164.63V64.292L162.86 64.562H162.52Z" fill="#F68841"/>
<path id="Vector_36" d="M164.89 74.7519L166.67 74.4819H167.02L168.96 74.7519V75.4719H164.89V74.7519ZM170.17 63.4919H171.28L175.36 75.4719H173.63L170.09 64.8919L170.51 64.8419L166.9 75.4819H166.05L170.17 63.4919ZM168.1 70.782H172.9L173.19 71.6119H167.81L168.1 70.782ZM171.58 74.7519L173.81 74.4819H174.21L176.42 74.7519V75.4719H171.58V74.7519Z" fill="#F68841"/>
</g>
</g>
</g>
</svg>
