<svg width="224" height="55" viewBox="0 0 224 55" fill="none" xmlns="http://www.w3.org/2000/svg">
<g id="Group">
<path id="Vector" d="M223.813 0.261338L223.925 0.0373356H204.288C198.501 0.0373356 193.573 1.232 189.504 3.584C185.435 5.97334 182.523 9.25867 180.731 13.552C179.611 16.2773 179.275 18.7413 179.76 20.9813C180.32 23.3333 181.776 24.976 184.091 26.0213C186.219 26.9547 189.765 27.4027 194.768 27.4027H212.501L214.256 23.072H204.288C199.472 23.072 196.261 22.4373 194.656 21.2053C192.901 19.8613 193.088 16.7627 194.469 13.4773C196.859 7.80267 201.824 4.256 208.731 4.256H216.459L214.667 8.51201H220.565L224 0.298668H223.813V0.261338ZM155.045 16.4267L166.992 4.816L169.456 16.4267H155.045ZM53.4613 16.464L65.1093 5.33867L67.2 16.464H53.4613ZM165.984 0L158.704 0.0373356L130.704 26.2453L141.643 0.0746712H129.659L115.173 11.424L107.707 17.5467H107.371L110.88 8.624L106.587 0.0373356H94.528L83.5893 26.2453L77.2427 0.0373356H64.0267L34.8693 27.3653H42.1493L49.616 20.2347H67.984L69.44 27.3653H88.9653L96.0213 10.4533C96.3947 9.59467 96.7307 8.624 97.0667 7.54134C97.104 8.43734 97.328 9.37067 97.776 10.3413L103.973 24.4533H105.019L122.789 10.416C123.461 9.89333 124.469 8.92267 125.813 7.54134C125.141 8.81067 124.656 9.78133 124.357 10.4533L117.301 27.3653H130.181H143.771L151.125 20.1973H170.203L171.733 27.3653H178.453L171.92 0H165.984ZM38.1173 20.944C40.4693 18.704 42.1867 16.24 43.344 13.5147C45.136 9.25867 44.9867 5.936 42.896 3.54667C40.8053 1.19467 36.848 0 31.0613 0H11.4613L9.66933 4.29333H23.184C30.0907 4.29333 32.0693 7.728 29.68 13.4027C28.2987 16.688 27.104 19.712 24.2293 21.056C21.616 22.288 18.8907 22.6613 14.0747 22.6613H7.84L12.5067 11.6107H6.608L0 27.3653H17.7707C22.7733 27.3653 26.6933 26.9173 29.6053 25.984C32.7787 24.9387 35.616 23.296 38.1173 20.944Z" fill="black"/>
<path id="Vector_2" d="M171.136 54.6561V49.7281L175.019 43.1201H173.339L171.696 46.2934C171.248 47.1521 170.875 47.9361 170.539 48.6827H170.501C170.128 47.8614 169.792 47.1894 169.344 46.2934L167.701 43.1201H166.021L169.68 49.7654V54.6561H171.136ZM159.189 44.3147C159.413 44.2401 159.936 44.1654 160.645 44.1654C162.213 44.1654 163.296 44.8374 163.296 46.3307C163.296 47.6374 162.288 48.5334 160.683 48.5334H159.152V44.3147H159.189ZM157.696 54.6561H159.189V49.6534H160.608C161.952 49.6907 162.587 50.2881 162.923 51.8934C163.259 53.3121 163.52 54.3201 163.707 54.6561H165.237C165.013 54.2081 164.715 53.0881 164.341 51.4827C164.08 50.2881 163.52 49.4667 162.661 49.1681V49.1307C163.893 48.7201 164.827 47.7121 164.827 46.1814C164.827 45.2854 164.491 44.5014 163.931 43.9787C163.221 43.3441 162.176 43.0454 160.608 43.0454C159.6 43.0454 158.517 43.1201 157.733 43.2694V54.6561H157.696ZM146.272 43.1201V49.9147C146.272 53.4987 148.064 54.8427 150.416 54.8427C152.917 54.8427 154.784 53.3867 154.784 49.8401V43.1201H153.291V49.9521C153.291 52.4907 152.208 53.6481 150.491 53.6481C148.96 53.6481 147.803 52.5654 147.803 49.9521V43.1201H146.272ZM144.219 54.6561L140.635 48.7201L144.144 43.1201H142.427L140.859 45.8081C140.448 46.5547 140.149 47.0774 139.813 47.7494H139.776C139.477 47.1521 139.141 46.5547 138.731 45.8081L137.2 43.1201H135.483L138.88 48.8321L135.371 54.6561H137.088L138.469 52.1174C139.067 51.1094 139.403 50.4747 139.701 49.8401H139.739C140.112 50.5121 140.485 51.1467 141.083 52.1174L142.539 54.6561H144.219ZM124.731 43.1201V49.9147C124.731 53.4987 126.523 54.8427 128.875 54.8427C131.376 54.8427 133.243 53.3867 133.243 49.8401V43.1201H131.749V49.9521C131.749 52.4907 130.667 53.6481 128.949 53.6481C127.419 53.6481 126.261 52.5654 126.261 49.9521V43.1201H124.731ZM116.965 54.6561H123.387V53.4241H118.459V43.1574H116.965V54.6561ZM110.544 48.0107H106.064V44.3521H110.805V43.1201H104.571V54.6561H111.067V53.4241H106.064V49.2801H110.544V48.0107ZM93.0721 43.1201V54.6561H94.5654V49.2427H100.128V54.6561H101.621V43.1201H100.128V47.9361H94.5654V43.1201H93.0721ZM86.4267 54.6561H87.9201V44.3894H91.4294V43.1201H82.8801V44.3894H86.3894V54.6561H86.4267ZM78.5121 48.0107H74.0321V44.3521H78.7734V43.1201H72.5387V54.6561H79.0347V53.4241H74.0321V49.2801H78.5121V48.0107ZM66.8267 54.6561L70.9334 43.1201H69.3281L67.3867 48.8321C66.8641 50.3254 66.3787 51.7814 66.0801 53.1254H66.0427C65.7441 51.7814 65.2961 50.3627 64.8107 48.8321L63.0187 43.1574H61.4134L65.1841 54.6934H66.8267V54.6561ZM58.2027 54.6561H59.6961V43.1201H58.2027V54.6561ZM49.8027 54.6561H56.2241V53.4241H51.2961V43.1574H49.8027V54.6561Z" fill="black"/>
</g>
</svg>
