<svg width="16" height="16" viewBox="0 0 16 16" fill="none" xmlns="http://www.w3.org/2000/svg">
<g id="Frame" opacity="0.8" clip-path="url(#clip0_305_127)">
<g id="Group">
<path id="Vector" fill-rule="evenodd" clip-rule="evenodd" d="M3.125 0H12.875C13.7033 0.00159403 14.4972 0.331346 15.0829 0.917052C15.6687 1.50276 15.9984 2.29669 16 3.125V12.875C15.9984 13.7033 15.6687 14.4972 15.0829 15.0829C14.4972 15.6687 13.7033 15.9984 12.875 16H3.125C2.29669 15.9984 1.50276 15.6687 0.917052 15.0829C0.331346 14.4972 0.00159403 13.7033 0 12.875L0 3.125C0.00159403 2.29669 0.331346 1.50276 0.917052 0.917052C1.50276 0.331346 2.29669 0.00159403 3.125 0ZM3.3125 12.1016C3.31254 12.257 3.37429 12.406 3.48416 12.5159C3.59404 12.6257 3.74305 12.6875 3.89844 12.6875H6.96509C7.04255 12.6883 7.1194 12.6737 7.19119 12.6446C7.26298 12.6156 7.32829 12.5725 7.38334 12.518C7.4384 12.4635 7.4821 12.3987 7.51193 12.3272C7.54176 12.2557 7.55711 12.179 7.55711 12.1016C7.55711 12.0241 7.54176 11.9474 7.51193 11.8759C7.4821 11.8044 7.4384 11.7396 7.38334 11.6851C7.32829 11.6306 7.26298 11.5876 7.19119 11.5585C7.1194 11.5294 7.04255 11.5148 6.96509 11.5156H5.31306L7.49431 9.33438C7.60422 9.22448 7.66598 9.07543 7.66599 8.92001C7.66601 8.76458 7.60428 8.61552 7.49439 8.50561C7.43998 8.45119 7.37538 8.40801 7.30428 8.37856C7.23318 8.3491 7.15698 8.33393 7.08002 8.33393C6.9246 8.33391 6.77554 8.39564 6.66563 8.50553L4.48438 10.6871V9.03491C4.48278 8.88055 4.42035 8.73307 4.31064 8.62448C4.20092 8.5159 4.0528 8.45499 3.89844 8.45499C3.74408 8.45499 3.59595 8.5159 3.48624 8.62448C3.37653 8.73307 3.31409 8.88055 3.3125 9.03491V12.1016ZM12.6875 3.89847C12.6875 3.74308 12.6257 3.59406 12.5158 3.48417C12.406 3.37429 12.257 3.31254 12.1016 3.3125H9.03491C8.95745 3.3117 8.8806 3.32627 8.80881 3.35535C8.73702 3.38444 8.67171 3.42747 8.61666 3.48196C8.5616 3.53645 8.5179 3.60131 8.48807 3.6728C8.45824 3.74429 8.44289 3.82098 8.44289 3.89844C8.44289 3.9759 8.45824 4.05259 8.48807 4.12407C8.5179 4.19556 8.5616 4.26043 8.61666 4.31491C8.67171 4.3694 8.73702 4.41244 8.80881 4.44152C8.8806 4.47061 8.95745 4.48518 9.03491 4.48438H10.6871L8.50553 6.66563C8.39562 6.77554 8.33387 6.92461 8.33387 7.08005C8.33387 7.23549 8.39562 7.38456 8.50553 7.49447C8.61544 7.60438 8.76451 7.66613 8.91995 7.66613C9.07539 7.66613 9.22446 7.60438 9.33438 7.49447L11.5156 5.31291V6.96513C11.5172 7.11948 11.5797 7.26697 11.6894 7.37555C11.7991 7.48413 11.9472 7.54504 12.1016 7.54504C12.2559 7.54504 12.404 7.48413 12.5138 7.37555C12.6235 7.26697 12.6859 7.11948 12.6875 6.96513V3.89847Z" fill="#3060DC"/>
</g>
</g>
<defs>
<clipPath id="clip0_305_127">
<rect width="16" height="16" fill="white"/>
</clipPath>
</defs>
</svg>
