<svg width="16" height="16" viewBox="0 0 16 16" fill="none" xmlns="http://www.w3.org/2000/svg">
<g id="icon/Control">
<path id="Vector" d="M13.7995 5.20001C13.6593 5.08285 13.4823 5.01867 13.2995 5.01867C13.1168 5.01867 12.9398 5.08285 12.7995 5.20001L7.99953 9.51001L3.21953 5.19001C3.08203 5.06702 2.90401 4.99902 2.71953 4.99902C2.53505 4.99902 2.35704 5.06702 2.21953 5.19001C2.15778 5.24354 2.10804 5.30953 2.07357 5.38363C2.03911 5.45774 2.02069 5.53829 2.01953 5.62001C2.02016 5.70037 2.03839 5.77963 2.07294 5.85219C2.1075 5.92476 2.15753 5.98886 2.21953 6.04001L7.51953 10.8C7.65801 10.921 7.83565 10.9876 8.01953 10.9876C8.20341 10.9876 8.38105 10.921 8.51953 10.8L13.8195 6.05001C13.8825 5.99745 13.9332 5.93169 13.968 5.85739C14.0028 5.78308 14.0208 5.70205 14.0208 5.62001C14.0208 5.53797 14.0028 5.45693 13.968 5.38262C13.9332 5.30832 13.8825 5.24256 13.8195 5.19001L13.7995 5.20001Z" fill="white"/>
</g>
</svg>
