<svg width="18" height="18" viewBox="0 0 18 18" fill="none" xmlns="http://www.w3.org/2000/svg">
<g id="Frame" opacity="0.8">
<g id="Group">
<path id="Vector" d="M16.3125 7.87495H15.75V3.0937C15.7538 2.5864 15.5611 2.09732 15.2122 1.729C14.8634 1.36068 14.3854 1.1417 13.8787 1.11799C13.3719 1.09428 12.8757 1.26767 12.4939 1.60181C12.1122 1.93594 11.8746 2.40489 11.8311 2.91033C11.4985 3.02302 11.2095 3.23683 11.0045 3.52185C10.7995 3.80687 10.6886 4.14884 10.6875 4.49995V5.06245C10.6875 5.21164 10.7468 5.35471 10.8523 5.4602C10.9577 5.56569 11.1008 5.62495 11.25 5.62495H13.5C13.6492 5.62495 13.7923 5.56569 13.8977 5.4602C14.0032 5.35471 14.0625 5.21164 14.0625 5.06245V4.49995C14.0616 4.15522 13.9549 3.81907 13.757 3.53684C13.559 3.2546 13.2793 3.03986 12.9555 2.92158C12.9984 2.71744 13.1153 2.53642 13.2838 2.41343C13.4522 2.29045 13.6603 2.23423 13.8678 2.25562C14.0753 2.27702 14.2675 2.3745 14.4073 2.52927C14.5471 2.68404 14.6247 2.88512 14.625 3.0937V7.87495H1.6875C1.53832 7.87495 1.39524 7.93421 1.28975 8.0397C1.18426 8.14519 1.125 8.28827 1.125 8.43745C1.125 8.58664 1.18426 8.72971 1.28975 8.8352C1.39524 8.94069 1.53832 8.99995 1.6875 8.99995V10.823C1.68884 11.7537 1.95371 12.665 2.45144 13.4514C2.94918 14.2378 3.65943 14.8672 4.5 15.2668V16.3125C4.5 16.4616 4.55926 16.6047 4.66475 16.7102C4.77024 16.8157 4.91332 16.875 5.0625 16.875H5.625C5.77418 16.875 5.91726 16.8157 6.02275 16.7102C6.12824 16.6047 6.1875 16.4616 6.1875 16.3125V15.7286C6.32812 15.7404 6.47044 15.75 6.61444 15.75H11.3856C11.5296 15.75 11.6713 15.7404 11.8125 15.7286V16.3125C11.8125 16.4616 11.8718 16.6047 11.9773 16.7102C12.0827 16.8157 12.2258 16.875 12.375 16.875H12.9375C13.0867 16.875 13.2298 16.8157 13.3352 16.7102C13.4407 16.6047 13.5 16.4616 13.5 16.3125V15.2662C14.3405 14.8668 15.0508 14.2375 15.5485 13.4511C16.0462 12.6648 16.3111 11.7536 16.3125 10.823V8.99995C16.4617 8.99995 16.6048 8.94069 16.7102 8.8352C16.8157 8.72971 16.875 8.58664 16.875 8.43745C16.875 8.28827 16.8157 8.14519 16.7102 8.0397C16.6048 7.93421 16.4617 7.87495 16.3125 7.87495Z" fill="#3060DC"/>
</g>
</g>
</svg>
