<svg width="22" height="22" viewBox="0 0 22 22" fill="none" xmlns="http://www.w3.org/2000/svg">
<g id="Frame">
<g id="Group">
<path id="Vector" d="M0 3.66656H22V18.3334H0V3.66656Z" fill="#F0F0F0"/>
<path id="Vector_2" d="M0 5.49974H22V7.33292H0V5.49974ZM0 9.16656H22V10.9997H0V9.16656ZM0 12.8329H22V14.6661H0V12.8329ZM0 16.4997H22V18.3329H0V16.4997Z" fill="#D80027"/>
<path id="Vector_3" d="M0 3.66656H11V11.5641H0V3.66656Z" fill="#2E52B2"/>
<path id="Vector_4" d="M4.28918 6.90182L4.11202 7.44683H3.53899L4.00267 7.78349L3.82551 8.32847L4.28918 7.99181L4.75256 8.32847L4.57544 7.78349L5.03912 7.44683H4.46604L4.28918 6.90182ZM4.46604 9.4136L4.28918 8.86863L4.11202 9.4136H3.53899L4.00267 9.7503L3.82551 10.2953L4.28918 9.95857L4.75256 10.2953L4.57544 9.7503L5.03912 9.4136H4.46604ZM2.04428 9.4136L1.86738 8.86863L1.69022 9.4136H1.11719L1.58086 9.7503L1.4037 10.2953L1.86738 9.95857L2.3308 10.2953L2.15368 9.7503L2.61727 9.4136H2.04428ZM1.86738 6.90182L1.69022 7.44683H1.11719L1.58086 7.78349L1.4037 8.32847L1.86738 7.99181L2.3308 8.32847L2.15368 7.78349L2.61727 7.44683H2.04428L1.86738 6.90182ZM4.28918 4.93497L4.11202 5.48003H3.53899L4.00267 5.81673L3.82551 6.3617L4.28918 6.025L4.75256 6.3617L4.57544 5.81673L5.03912 5.48003H4.46604L4.28918 4.93497ZM1.86738 4.93497L1.69022 5.48003H1.11719L1.58086 5.81673L1.4037 6.3617L1.86738 6.025L2.3308 6.3617L2.15368 5.81673L2.61727 5.48003H2.04428L1.86738 4.93497ZM6.71095 6.90182L6.53383 7.44683H5.9608L6.42443 7.78349L6.24736 8.32847L6.71095 7.99181L7.17441 8.32847L6.99725 7.78349L7.46092 7.44683H6.88789L6.71095 6.90182ZM6.88789 9.4136L6.71095 8.86863L6.53383 9.4136H5.9608L6.42443 9.7503L6.24736 10.2953L6.71095 9.95857L7.17441 10.2953L6.99725 9.7503L7.46092 9.4136H6.88789ZM9.30969 9.4136L9.13279 8.86863L8.95563 9.4136H8.38264L8.84623 9.7503L8.66912 10.2953L9.13279 9.95857L9.59621 10.2953L9.41905 9.7503L9.88273 9.4136H9.30969ZM9.13279 6.90182L8.95563 7.44683H8.38264L8.84623 7.78349L8.66912 8.32847L9.13279 7.99181L9.59621 8.32847L9.41905 7.78349L9.88273 7.44683H9.30969L9.13279 6.90182ZM6.71095 4.93497L6.53383 5.48003H5.9608L6.42443 5.81673L6.24736 6.3617L6.71095 6.025L7.17441 6.3617L6.99725 5.81673L7.46092 5.48003H6.88789L6.71095 4.93497ZM9.13279 4.93497L8.95563 5.48003H8.38264L8.84623 5.81673L8.66912 6.3617L9.13279 6.025L9.59621 6.3617L9.41905 5.81673L9.88273 5.48003H9.30969L9.13279 4.93497Z" fill="#F0F0F0"/>
</g>
</g>
</svg>
