<svg width="32" height="32" viewBox="0 0 32 32" fill="none" xmlns="http://www.w3.org/2000/svg">
<g id="Frame" clip-path="url(#clip0_140_3749)">
<g id="Group">
<path id="Vector" d="M32.0571 16.0573C32.0571 24.3154 25.8635 31.0824 17.9496 32V19.6129H21.7345L22.308 15.2545H18.0642V12.6165C18.0642 11.3548 18.4083 10.552 20.2435 10.552H22.5374V6.53763C21.3904 6.42294 20.3582 6.42294 19.2112 6.42294C15.885 6.42294 13.5911 8.48746 13.5911 12.1577V15.3692H9.80618V19.7276H13.5911V32C5.79184 30.7384 -0.0576172 24.086 -0.0576172 16.0573C-0.0576172 7.22581 7.16819 0 15.9997 0C24.8313 0 32.0571 7.22581 32.0571 16.0573Z" fill="#1058C6"/>
</g>
</g>
<defs>
<clipPath id="clip0_140_3749">
<rect width="32" height="32" fill="white"/>
</clipPath>
</defs>
</svg>
