<svg width="18" height="19" viewBox="0 0 18 19" fill="none" xmlns="http://www.w3.org/2000/svg">
<g id="icon-home" clip-path="url(#clip0_275_2790)">
<g id="Group">
<path id="Vector" d="M17.5147 8.32912L17.5134 8.32789L10.1709 0.985613C9.85789 0.672441 9.44178 0.5 8.9992 0.5C8.55658 0.5 8.14047 0.672336 7.82737 0.985473L0.488612 8.32402C0.486151 8.32648 0.48369 8.32909 0.481229 8.33158C-0.161498 8.97796 -0.160373 10.0267 0.484393 10.6715C0.778932 10.9662 1.16801 11.1369 1.58397 11.1548C1.60085 11.1564 1.6179 11.1572 1.63506 11.1572H1.9277V16.5607C1.9277 17.63 2.79767 18.5 3.8672 18.5H6.73981C7.03098 18.5 7.26716 18.2639 7.26716 17.9727V13.7363C7.26716 13.2484 7.66407 12.8515 8.15201 12.8515H9.84636C10.3343 12.8515 10.7312 13.2484 10.7312 13.7363V17.9727C10.7312 18.2639 10.9672 18.5 11.2585 18.5H14.1312C15.2007 18.5 16.0707 17.63 16.0707 16.5608V11.1573H16.342C16.7845 11.1573 17.2006 10.9849 17.5139 10.6718C18.1593 10.026 18.1596 8.9754 17.5147 8.32912Z" fill="#8B0202"/>
</g>
</g>
<defs>
<clipPath id="clip0_275_2790">
<rect width="18" height="18" fill="white" transform="translate(0 0.5)"/>
</clipPath>
</defs>
</svg>
