<svg width="18" height="18" viewBox="0 0 18 18" fill="none" xmlns="http://www.w3.org/2000/svg">
<g id="mail" clip-path="url(#clip0_140_3788)">
<g id="Vector">
<path d="M10.5043 11.0282C10.0565 11.3267 9.53631 11.4846 9 11.4846C8.46373 11.4846 7.94356 11.3267 7.49574 11.0282L0.119849 6.11079C0.0791307 6.08356 0.0391665 6.05523 8.71912e-07 6.02581V14.0835C8.71912e-07 15.0074 0.749708 15.7405 1.65702 15.7405H16.3429C17.2668 15.7405 18 14.9908 18 14.0835V6.02578C17.9607 6.05527 17.9207 6.08366 17.8799 6.11093L10.5043 11.0282Z" fill="#3060DC"/>
<path d="M0.704884 5.23321L8.08077 10.1507C8.35998 10.3368 8.67997 10.4299 8.99997 10.4299C9.31999 10.4299 9.64002 10.3368 9.91923 10.1507L17.2951 5.23321C17.7365 4.93913 18 4.44695 18 3.91573C18 3.00234 17.2569 2.25928 16.3435 2.25928H1.65646C0.743098 2.25931 8.71912e-07 3.00237 8.71912e-07 3.91661C-0.000272946 4.17719 0.0639503 4.43379 0.186942 4.66352C0.309934 4.89325 0.487872 5.08897 0.704884 5.23321Z" fill="#3060DC"/>
</g>
</g>
<defs>
<clipPath id="clip0_140_3788">
<rect width="18" height="18" fill="white"/>
</clipPath>
</defs>
</svg>
