<svg width="18" height="20" viewBox="0 0 18 20" fill="none" xmlns="http://www.w3.org/2000/svg">
<g id="Group">
<path id="Vector" d="M15.984 13.7243C14.8172 12.7426 13.6332 12.1479 12.4808 13.1281L11.7927 13.7206C11.2892 14.1506 10.3531 16.16 6.73382 12.0641C3.11531 7.9734 5.26863 7.33648 5.77286 6.91013L6.46475 6.31695C7.61113 5.3345 7.17851 4.09772 6.3517 2.82461L5.85275 2.05348C5.02217 0.783335 4.11773 -0.050822 2.96834 0.930147L2.3473 1.46401C1.8393 1.82807 0.419334 3.01146 0.0748931 5.25961C-0.339641 7.95709 0.968027 11.0461 3.96398 14.4353C6.95617 17.8261 9.88579 19.5293 12.6609 19.4996C14.9672 19.4751 16.3601 18.2576 16.7957 17.815L17.419 17.2804C18.5654 16.3001 17.8531 15.3021 16.6857 14.3182L15.984 13.7243Z" fill="white"/>
</g>
</svg>
