<svg width="18" height="18" viewBox="0 0 18 18" fill="none" xmlns="http://www.w3.org/2000/svg">
<g id="Frame" clip-path="url(#clip0_140_3792)">
<g id="Group">
<path id="Vector" d="M17.4535 10.8901C18.7574 5.04491 13.6316 -0.260742 7.60658 0.750928C4.34676 -1.27241 0.0078125 1.02071 0.0078125 4.91002C0.0078125 5.80928 0.25511 6.66358 0.68226 7.38299C-0.509264 13.2507 4.63902 18.4889 10.6641 17.3873C14.9131 19.6354 19.5893 15.1616 17.4535 10.8901ZM11.7432 14.4197C10.1695 15.0717 7.56162 15.0717 5.98791 14.2399C3.73975 13.0483 3.35757 10.3506 5.29098 10.3506C6.75228 10.3506 6.28017 12.0592 7.76395 12.7336C8.4384 13.0483 9.8997 13.0708 10.7315 12.5088C11.5633 11.9467 11.4959 11.07 11.0463 10.6653C9.85474 9.5637 6.41506 9.99085 4.84135 8.05744C4.1669 7.22562 4.03201 5.74184 4.86383 4.66272C6.32513 2.77427 10.6191 2.66186 12.4626 4.0782C14.1712 5.40461 13.6991 7.13569 12.3277 7.13569C10.6866 7.13569 11.5409 4.97746 8.86555 4.97746C6.93214 4.97746 6.16776 6.34884 7.53914 7.02329C9.38263 7.96751 14.0813 7.65277 14.0813 11.2498C14.0813 12.7336 13.1595 13.8352 11.7432 14.4197Z" fill="#3060DC"/>
</g>
</g>
<defs>
<clipPath id="clip0_140_3792">
<rect width="18" height="18" fill="white"/>
</clipPath>
</defs>
</svg>
