<svg width="32" height="32" viewBox="0 0 32 32" fill="none" xmlns="http://www.w3.org/2000/svg">
<g id="Frame" clip-path="url(#clip0_140_3889)">
<g id="Group">
<g id="Layer 2">
<g id="09.whatsapp">
<path id="Vector" d="M16 32C24.8366 32 32 24.8366 32 16C32 7.16344 24.8366 0 16 0C7.16344 0 0 7.16344 0 16C0 24.8366 7.16344 32 16 32Z" fill="#29A71A"/>
<g id="Group_2">
<path id="Vector_2" d="M23.0544 8.94545C21.3897 7.26417 19.1791 6.2331 16.8211 6.03822C14.4632 5.84333 12.1132 6.49746 10.1951 7.88262C8.27703 9.26777 6.91703 11.2928 6.36047 13.5923C5.80391 15.8919 6.08741 18.3147 7.15984 20.4236L6.10712 25.5345C6.09619 25.5854 6.09588 25.638 6.10621 25.689C6.11653 25.74 6.13727 25.7883 6.16712 25.8309C6.21084 25.8956 6.27326 25.9454 6.34604 25.9736C6.41881 26.0019 6.49847 26.0073 6.57439 25.9891L11.5835 24.8018C13.6865 25.8471 16.0922 26.1124 18.3724 25.5504C20.6527 24.9885 22.6596 23.6358 24.0361 21.733C25.4126 19.8303 26.0694 17.5008 25.8897 15.1592C25.7099 12.8177 24.7052 10.6158 23.0544 8.94545ZM21.4926 21.4109C20.3408 22.5594 18.8576 23.3176 17.2521 23.5786C15.6466 23.8395 13.9997 23.5901 12.5435 22.8654L11.8453 22.52L8.77439 23.2473L8.78348 23.2091L9.41984 20.1182L9.07803 19.4436C8.33395 17.9823 8.07147 16.323 8.32818 14.7033C8.58489 13.0837 9.34763 11.5869 10.5071 10.4273C11.964 8.9708 13.9398 8.1526 15.9998 8.1526C18.0599 8.1526 20.0357 8.9708 21.4926 10.4273C21.505 10.4415 21.5183 10.4549 21.5326 10.4673C22.9714 11.9275 23.7747 13.8973 23.7672 15.9473C23.7597 17.9973 22.9421 19.9612 21.4926 21.4109Z" fill="white"/>
<path id="Vector_3" d="M21.2196 19.1436C20.8432 19.7364 20.2486 20.4618 19.5014 20.6418C18.1923 20.9582 16.1832 20.6527 13.6832 18.3218L13.6523 18.2945C11.4541 16.2564 10.8832 14.56 11.0214 13.2145C11.0977 12.4509 11.7341 11.76 12.2705 11.3091C12.3553 11.2367 12.4558 11.1852 12.5641 11.1586C12.6724 11.1321 12.7853 11.1312 12.894 11.1561C13.0027 11.181 13.104 11.231 13.1899 11.3021C13.2758 11.3732 13.3438 11.4634 13.3886 11.5654L14.1977 13.3836C14.2503 13.5015 14.2698 13.6315 14.2541 13.7596C14.2384 13.8878 14.1881 14.0092 14.1086 14.1109L13.6996 14.6418C13.6118 14.7514 13.5588 14.8848 13.5475 15.0248C13.5361 15.1648 13.5669 15.3049 13.6359 15.4273C13.865 15.8291 14.4141 16.42 15.0232 16.9673C15.7068 17.5854 16.465 18.1509 16.945 18.3436C17.0734 18.3961 17.2147 18.4089 17.3504 18.3804C17.4862 18.3519 17.6103 18.2833 17.7068 18.1836L18.1814 17.7054C18.2729 17.6152 18.3868 17.5508 18.5114 17.5188C18.6359 17.4869 18.7667 17.4885 18.8905 17.5236L20.8123 18.0691C20.9183 18.1016 21.0155 18.1579 21.0964 18.2338C21.1773 18.3096 21.2398 18.4029 21.2791 18.5066C21.3184 18.6103 21.3334 18.7216 21.3231 18.832C21.3128 18.9424 21.2774 19.049 21.2196 19.1436Z" fill="white"/>
</g>
</g>
</g>
</g>
</g>
<defs>
<clipPath id="clip0_140_3889">
<rect width="32" height="32" fill="white"/>
</clipPath>
</defs>
</svg>
